<?xml version="1.0" encoding="UTF-8"?>
<svg id="Layer_1" xmlns="http://www.w3.org/2000/svg" viewBox="0 0 150 150">
  <defs>
    <style>
      .cls-1 {
        fill: #0464f6;
      }
    </style>
  </defs>
  <path class="cls-1" d="M38.47,70.5c10.17-8.41,18.91-17.61,25.52-28.69,1.3-2.19,2.46-4.46,3.6-6.74,1.01-2.01,1.65-3.93,1.13-6.41-.82-3.96,1.76-7.66,5.52-8.97,3.78-1.31,7.81.01,9.96,3.57,3.24,5.37,6.3,10.85,9.44,16.28.97,1.68,1.97,3.36,2.94,5,7.88-2.64,12.34-1.51,15.17,3.73,2.63,4.86,1.06,9.64-4.86,14.27,3.28,5.72,6.58,11.47,9.88,17.23.88,1.53,1.83,3.03,2.57,4.63,1.75,3.82.63,8.17-2.59,10.55-3.13,2.31-7.39,2.03-10.65-.46-1.09-.83-2.51-1.52-3.85-1.67-15.15-1.67-29.66,1.34-43.82,6.41-2.15.77-3.22.59-4.38-1.48-5.06-9.06-10.28-18.03-15.57-27.24Z"/>
  <path class="cls-1" d="M33.36,72.21c6.12,10.66,12.06,20.99,18.23,31.73-5.91,3.23-11.42,6.92-17.43,9.37-8.7,3.55-18.46-.86-22.45-9.31-3.94-8.35-.87-18.54,7.12-23.36,4.68-2.83,9.46-5.5,14.53-8.43Z"/>
  <path class="cls-1" d="M43.32,114.85c.59-.43,1.03-.8,1.53-1.09,3.2-1.86,6.42-3.7,9.81-5.64,4.24,5.55,8.39,10.98,12.54,16.41.06.08.1.17.15.25,1.4,2.7-.26,5.54-5.18,8.71-2.28,1.47-4.03.66-5.55-1.33-4.39-5.76-8.82-11.48-13.31-17.32Z"/>
  <path class="cls-1" d="M115.6,18.55c-.55,1.47-.76,2.33-1.18,3.08-1.86,3.33-3.74,6.66-5.7,9.93-1.44,2.41-3.47,3.09-5.37,1.84-2.1-1.38-2.3-3.29-1.13-5.37,2.02-3.58,3.91-7.26,6.25-10.62.74-1.06,2.83-1.82,4.15-1.63,1.14.16,2.06,1.85,2.99,2.77Z"/>
  <path class="cls-1" d="M135.56,36.86c-.47.6-1.14,1.99-2.24,2.71-3.2,2.08-6.55,3.92-9.88,5.78-1.97,1.1-3.88.91-5.12-1.1-1.29-2.09-.74-4.05,1.32-5.32,3.41-2.11,6.87-4.16,10.42-6.02,2.62-1.38,5.41.32,5.51,3.96Z"/>
  <path class="cls-1" d="M130.09,58.57c2.05,0,4.11-.07,6.16.01,2.29.09,3.73,1.31,3.75,3.65.02,2.34-1.41,3.63-3.7,3.68-4.2.08-8.41.08-12.62,0-2.28-.04-3.75-1.29-3.76-3.63,0-2.33,1.42-3.59,3.71-3.68,2.15-.09,4.3-.02,6.45-.02Z"/>
</svg>