<?xml version="1.0" encoding="UTF-8"?>
<svg id="Layer_1" xmlns="http://www.w3.org/2000/svg" viewBox="0 0 150 150">
  <defs>
    <style>
      .cls-1 {
        fill: #0464f6;
      }
    </style>
  </defs>
  <path class="cls-1" d="M51.11,24.89c1.21.87,2.35,1.5,3.24,2.38,8.27,8.25,16.5,16.54,24.74,24.81,3.47,3.49,4.65,3.47,8.1-.01,7.29-7.36,14.61-14.69,21.91-22.05,2.87-2.9,2.9-3.85.29-6.85-2.29-2.64-1.51-5.4,1.89-6.11,8.01-1.69,16.04-3.3,24.08-4.84,3.2-.62,5.12,1.19,4.54,4.23-1.53,7.95-3.11,15.89-4.78,23.81-.88,4.2-3.43,4.98-6.6,2.16-2.61-2.32-3.72-2.27-6.42.43-11.64,11.67-23.27,23.35-34.89,35.05-3.48,3.51-4.63,3.54-8.1.05-8.24-8.28-16.47-16.56-24.73-24.82-2.74-2.75-4.05-2.71-6.82.05-7.59,7.6-15.15,15.22-22.76,22.8-2.79,2.78-4.01,2.73-6.82-.07-2.2-2.19-4.38-4.41-6.58-6.61-1.88-1.89-1.88-3.77,0-5.66,12.23-12.28,24.44-24.58,36.7-36.84.75-.75,1.82-1.17,3-1.91Z"/>
  <path class="cls-1" d="M124.95,103.2c0,9.89.01,19.78,0,29.68,0,4.1-.9,4.98-4.98,5-2.83.02-5.65.02-8.48,0-4.1-.02-4.99-.89-5-4.97-.01-18.56,0-37.12,0-55.68,0-1.79-.03-3.58.04-5.37.08-2.14,1.29-3.35,3.38-3.4,3.86-.09,7.73-.12,11.59,0,2.81.09,3.48,2.03,3.48,4.5-.03,10.08-.01,20.16-.01,30.24Z"/>
  <path class="cls-1" d="M64.26,107.45c0,8.47,0,16.94,0,25.41,0,4.03-.96,4.99-4.98,5.01-3.11.02-6.21.04-9.32-.01-2.98-.05-4.24-1.17-4.25-4.05-.04-17.6-.04-35.19,0-52.79,0-2.93,1.26-4.1,4.15-4.14,3.39-.05,6.78-.05,10.16,0,3.06.04,4.21,1.19,4.23,4.33.04,8.75.01,17.5.01,26.25Z"/>
  <path class="cls-1" d="M33.84,115.37c0,6.02.02,12.04,0,18.06-.02,3.36-1.04,4.39-4.37,4.43-3.29.04-6.59.05-9.88,0-3.03-.05-4.18-1.1-4.2-4.07-.05-12.51-.05-25.02,0-37.54.01-3.01,1.16-4.08,4.13-4.13,3.39-.05,6.77-.05,10.16,0,3.11.04,4.14,1.11,4.16,4.34.04,6.3.01,12.61.01,18.91Z"/>
  <path class="cls-1" d="M76.1,118.3c0-4.98-.03-9.97,0-14.95.02-3.32,1.1-4.38,4.4-4.41,3.29-.03,6.58-.04,9.87,0,2.97.04,4.24,1.13,4.25,4.02.07,10.25.06,20.5,0,30.75-.02,2.94-1.22,4.09-4.16,4.14-3.48.07-6.96.07-10.44,0-2.76-.06-3.9-1.24-3.92-4.04-.05-5.17-.02-10.34-.02-15.52Z"/>
</svg>