<?xml version="1.0" encoding="UTF-8"?>
<svg id="Layer_1" xmlns="http://www.w3.org/2000/svg" viewBox="0 0 150 150">
  <defs>
    <style>
      .cls-1 {
        fill: #0464f6;
      }
    </style>
  </defs>
  <path class="cls-1" d="M10.28,103.59c.37-11.09,3.83-19.9,10.98-27.13,8.49-8.6,17.09-17.09,25.53-25.73,2.02-2.07,3.45-2.06,5.42.02,3.98,4.21,8.07,8.31,12.26,12.31,2.11,2.01,1.95,3.48-.05,5.46-8.46,8.34-16.85,16.76-25.19,25.22-4.83,4.9-5.34,11.64-1.45,16.55,4.64,5.86,12.98,6.26,18.44.82,8.34-8.32,16.63-16.69,24.96-25.03,2.74-2.75,3.42-2.74,6.1-.07,4.03,4.02,7.99,8.1,12.07,12.08,1.83,1.78,1.83,3.24,0,5.05-8.86,8.8-17.52,17.79-26.49,26.46-11.03,10.66-26.54,13.4-40.51,6.98-14.38-6.61-21.21-18.41-22.07-32.98ZM49.69,54.81c-2.19,2.1-4.44,4.27-6.22,5.98,3.63,3.8,7.26,7.59,10.29,10.77,2.28-1.97,4.58-3.95,6.87-5.92-3.73-3.69-7.33-7.26-10.94-10.83ZM88.82,106.7c1.95-1.94,4.13-4.12,5.9-5.88-3.52-3.6-7.16-7.32-10.64-10.87-2.04,1.83-4.24,3.81-6.46,5.8,3.88,3.79,7.56,7.39,11.2,10.95Z"/>
  <path class="cls-1" d="M105.14,33.98c-.06,13.17-10.76,23.81-23.86,23.73-12.92-.08-23.67-11.11-23.54-24.14.14-12.89,10.95-23.6,23.81-23.57,13.08.03,23.65,10.78,23.59,23.98ZM96.97,45.1c5.97-7.02,4.91-18.76-2.3-25.46-7.7-7.16-19.32-6.98-26.77.4-6.92,6.85-7.77,18.52-1.82,24.9,9.16-12.2,23.64-10.52,30.9.16Z"/>
  <path class="cls-1" d="M117.83,98.71c-11.87-.09-21.31-9.78-21.22-21.8.08-11.87,9.81-21.49,21.66-21.42,11.75.07,21.49,9.92,21.45,21.71-.04,11.98-9.83,21.61-21.88,21.52ZM132.13,86.77c5.21-7.26,3.88-17.12-2.89-22.81-7.1-5.96-17.16-5.45-23.53,1.2-5.79,6.04-6.48,15.9-1.5,21.43,7.78-9.83,20.22-9.68,27.92.18Z"/>
  <path class="cls-1" d="M38.85,30.63c-2.2,0-3.88.05-5.54-.01-2.23-.08-3.08-1.33-2.42-3.39,1.36-4.27,2.71-8.54,4.35-12.7.32-.83,1.88-1.17,2.87-1.74.37,1.08,1.24,2.28,1,3.21-.83,3.26-2.03,6.42-3.3,10.23,2.09,0,3.81-.04,5.53.01,2.22.07,3.11,1.32,2.47,3.38-1.32,4.28-2.68,8.55-4.29,12.72-.33.84-1.87,1.21-2.86,1.8-.38-1.08-1.29-2.29-1.06-3.22.8-3.26,2-6.42,3.26-10.29Z"/>
  <path class="cls-1" d="M118.95,117.15c1.46-1.73,2.48-3.07,3.64-4.26,1.52-1.56,3.03-1.53,4.08.51,2.1,4.08,4.2,8.17,6.06,12.36.33.75-.5,2.01-.79,3.04-.98-.4-2.44-.53-2.87-1.26-1.81-3.08-3.32-6.33-5.97-10.31-.97,1.38-1.79,2.91-2.95,4.11-1.86,1.92-3.11,1.68-4.36-.73-1.93-3.72-3.75-7.5-5.62-11.25-.73-1.46-1.18-2.98.66-3.84,1.91-.89,2.63.69,3.32,2.06,1.47,2.91,2.92,5.83,4.8,9.57Z"/>
  <path class="cls-1" d="M89.55,25.34c.05,4.6-3.51,8.27-8.04,8.28-4.44,0-8.22-3.78-8.19-8.22.03-4.33,3.64-8.01,7.98-8.14,4.49-.13,8.2,3.5,8.25,8.07Z"/>
  <path class="cls-1" d="M118.13,77.08c-4.17.01-7.63-3.44-7.61-7.57.03-4.14,3.52-7.52,7.71-7.46,4.14.06,7.33,3.27,7.38,7.41.05,4.26-3.24,7.61-7.48,7.62Z"/>
</svg>