<?xml version="1.0" encoding="UTF-8"?>
<svg id="Layer_1" xmlns="http://www.w3.org/2000/svg" viewBox="0 0 150 150">
  <defs>
    <style>
      .cls-1 {
        fill: #0464f6;
      }
    </style>
  </defs>
  <path class="cls-1" d="M114.25,65.63c-.84.92-1.64,2.51-2.89,3.05-5.77,2.49-5.73,10.28-.02,12.85,2.99,1.34,3.33,3.38,1.7,6.28-2.57,4.59-5.2,9.15-7.87,13.67-1.83,3.09-3.4,3.49-6.52,1.88-6.3-3.26-10.62-.7-10.94,6.47-.14,3.21-1.3,4.49-4.47,4.53-5.45.08-10.9.08-16.35,0-3.19-.05-4.35-1.32-4.49-4.51-.33-7.3-4.53-9.69-11.17-6.36-2.83,1.42-4.48,1.03-6.13-1.75-2.78-4.68-5.51-9.4-8.16-14.16-1.5-2.69-.93-4.41,1.79-6.11,6-3.77,6.01-8.96.02-12.71-2.81-1.76-3.31-3.44-1.67-6.35,2.57-4.59,5.2-9.15,7.87-13.67,1.83-3.09,3.4-3.49,6.52-1.88,6.31,3.25,10.62.7,10.94-6.47.14-3.22,1.29-4.48,4.48-4.53,5.45-.08,10.9-.08,16.35,0,3.19.05,4.35,1.31,4.49,4.51.33,7.3,4.56,9.7,11.17,6.36,2.63-1.33,4.42-1.06,5.82,1.27,3,4.99,5.85,10.07,8.73,15.13.31.55.41,1.23.82,2.49ZM75,89.66c7.95.04,14.57-6.53,14.62-14.5.05-7.96-6.51-14.57-14.5-14.61-7.96-.04-14.57,6.51-14.62,14.49-.04,7.95,6.53,14.58,14.5,14.62Z"/>
  <path class="cls-1" d="M37.16,128.41c.26,2.25.56,4.45.75,6.66.23,2.7-1.02,4.51-3.21,4.82-2.1.29-3.87-1.24-4.26-3.89-.79-5.39-1.54-10.78-2.19-16.19-.43-3.57.57-4.91,4.04-5.41,5.39-.78,10.8-1.48,16.21-2.12,2.89-.34,4.74.97,4.97,3.3.21,2.21-1.19,3.71-3.98,4.17-2.58.43-5.17.79-8.28,1.27.93.77,1.48,1.33,2.14,1.74,19.23,12.04,39.26,13.36,59.09,2.42,20.54-11.34,30.29-29.54,29.76-53.06-.17-7.33-2.12-14.28-5.14-20.93-.8-1.76-1.01-3.44.39-4.98,1.89-2.06,5.27-1.45,6.31,1.56,2.06,5.91,4.43,11.86,5.37,18,5.22,34.06-17.38,66.14-51.19,72.89-17.16,3.43-33.23.35-48.05-9.04-.63-.4-1.26-.81-1.91-1.19-.13-.08-.35-.01-.81-.01Z"/>
  <path class="cls-1" d="M113.03,22.36c-.32-2.74-.61-4.86-.81-6.99-.27-2.9.96-4.78,3.24-5.05,2.11-.25,3.82,1.27,4.21,3.95.79,5.39,1.54,10.78,2.19,16.19.43,3.53-.58,4.85-4.11,5.37-5.39.79-10.8,1.48-16.21,2.11-2.77.33-4.53-.88-4.87-3.09-.36-2.31,1.08-3.92,4-4.39,2.57-.41,5.15-.78,8.19-1.24-.84-.73-1.32-1.26-1.9-1.63-19.18-12.13-39.2-13.53-59.08-2.68-20.48,11.19-30.34,29.24-30,52.66.1,6.84,1.75,13.38,4.39,19.68.29.69.61,1.37.89,2.07.98,2.49.32,4.66-1.67,5.53-2.05.9-4.07.02-5.23-2.42-4.84-10.15-6.95-20.92-5.87-32.06,2.54-26.11,15.86-44.95,40.03-55.15,20.27-8.55,40.23-6.43,59.13,4.94.95.57,1.88,1.18,3.47,2.18Z"/>
</svg>