<?xml version="1.0" encoding="UTF-8"?>
<svg id="Layer_1" xmlns="http://www.w3.org/2000/svg" viewBox="0 0 150 150">
  <defs>
    <style>
      .cls-1 {
        fill: #0464f6;
      }
    </style>
  </defs>
  <path class="cls-1" d="M74.72,9.7c4,.09,6.6,2.89,6.86,6.98.41,6.27.46,6.07,6.37,7.77,20.5,5.9,33.18,19.37,37.93,40.13.68,2.98,1.59,4.1,4.74,3.98,6.36-.24,9.48,2.15,9.38,6.58-.09,4.32-3.11,6.58-9.29,6.34-3.08-.12-4.23.78-4.8,3.89-3.8,20.48-20.38,37.05-40.85,40.81-2.92.54-3.8,1.62-3.51,4.38.16,1.55.04,3.18-.29,4.7-.66,3.06-3.42,5.23-6.38,5.03-3.11-.22-5.28-1.83-6.15-4.93-.15-.54-.25-1.1-.29-1.66-.18-2.22.46-5.13-.71-6.47-1.2-1.38-4.2-1.13-6.34-1.78-20.1-6.16-32.63-19.48-37.27-39.98-.68-2.99-1.6-4.09-4.74-3.97-6.34.24-9.48-2.17-9.38-6.59.1-4.32,3.1-6.57,9.29-6.33,3.08.12,4.22-.79,4.8-3.89,3.76-20.33,20.28-36.97,40.53-40.73,3.2-.59,4.12-1.76,3.84-4.79-.34-3.63.11-7.1,4.04-8.84.81-.36,1.73-.47,2.22-.59ZM68.42,113.18c0-1.68-.07-3.35.01-5,.21-4.26,2.95-7.1,6.68-7.04,3.6.06,6.22,2.82,6.45,6.92.1,1.73.02,3.48.02,5.27,16.41-1.85,30.68-17.98,31.35-31.62-4.83-.48-11.6,1.16-11.72-6.55-.12-8,6.86-6.3,11.73-6.88-.11-13.9-17.99-31.74-31.2-31.26-.41,4.82.96,11.41-6.35,11.69-8.14.3-6.69-6.78-7.12-11.9-16.27,1.44-31.05,18.66-31.08,31.7,1.67,0,3.35-.06,5.02.01,4.08.18,6.75,2.8,6.74,6.54-.01,3.73-2.69,6.3-6.79,6.5-1.74.09-3.47.16-5.2.24.93,14.6,17.12,30.75,31.46,31.4Z"/>
  <path class="cls-1" d="M74.91,81.52c-3.53-.06-6.48-3.05-6.45-6.54.02-3.51,2.98-6.44,6.53-6.46,3.67-.02,6.76,3.1,6.62,6.71-.14,3.53-3.15,6.36-6.7,6.3Z"/>
</svg>