<?xml version="1.0" encoding="UTF-8"?>
<svg id="Layer_1" xmlns="http://www.w3.org/2000/svg" viewBox="0 0 150 150">
  <defs>
    <style>
      .cls-1 {
        fill: #0464f6;
      }
    </style>
  </defs>
  <path class="cls-1" d="M122.44,63.84c-7.74,6.52-14.85,12.52-21.96,18.52-2.74,2.3-5.59,4.49-8.16,6.96-.94.91-1.69,2.48-1.73,3.78-.18,5.72-.08,11.44-.08,17.32h-31.25c0-5.56-.14-11,.06-16.43.09-2.44-.77-3.96-2.6-5.47-9-7.43-17.89-14.99-26.82-22.51-.68-.57-1.31-1.21-2.35-2.17h94.89Z"/>
  <path class="cls-1" d="M24.83,55.98v-7.55c1.18-.08,2.26-.21,3.34-.21,31.18-.01,62.35.03,93.53-.07,2.74,0,3.75.77,3.4,3.47-.17,1.36-.03,2.77-.03,4.35H24.83Z"/>
  <path class="cls-1" d="M75,116.64c6.42.05,11.72,5.34,11.66,11.64-.07,6.65-5.26,11.77-11.88,11.71-6.59-.05-11.74-5.32-11.66-11.94.07-6.31,5.44-11.47,11.89-11.42Z"/>
  <path class="cls-1" d="M46.84,33.35c-6.82,0-11.7-4.96-11.66-11.84.04-6.31,5.2-11.45,11.54-11.51,6.46-.06,11.79,5.14,11.82,11.54.03,6.83-4.91,11.82-11.7,11.82Z"/>
  <path class="cls-1" d="M114.59,21.75c-.07,6.88-5.01,11.7-11.88,11.61-6.66-.09-11.48-5.04-11.47-11.76,0-6.4,5.31-11.62,11.77-11.59,6.46.03,11.66,5.29,11.59,11.75Z"/>
  <path class="cls-1" d="M86.63,40.44h-23.45c-.24-4.69,1.64-8.17,5.27-10.63,3.82-2.59,7.98-2.75,11.99-.54,4.18,2.31,6.3,5.99,6.19,11.17Z"/>
</svg>