<?xml version="1.0" encoding="UTF-8"?>
<svg id="Layer_1" xmlns="http://www.w3.org/2000/svg" viewBox="0 0 150 150">
  <defs>
    <style>
      .cls-1 {
        fill: #0464f6;
      }
    </style>
  </defs>
  <path class="cls-1" d="M95.74,122.02v17.84h-48.33c.61-16.5-.89-32.88-6.59-49.19h14.82v-9.99c0-2.54.19-5.1-.04-7.62-.54-5.83.88-10.21,5.4-14.77,9.22-9.3,11-21.02,7.07-33.53-.28-.89-.61-1.77-.91-2.66-.03-.08,0-.19,0-.56,6.3-2.34,12.89-2.98,19.56-2.06,24.09,3.29,40.33,21.38,41.4,45.82.05,1.24.52,2.58,1.15,3.67,3.15,5.46,6.43,10.85,9.63,16.28,1.78,3.02,1.57,4.7-1.61,5.72-5.27,1.69-6.83,4.91-5.88,10.12.5,2.75.37,5.63.44,8.45.18,7.21-4.8,12.4-12.01,12.47-6.87.07-13.74.02-20.62.02-1.02,0-2.03,0-3.47,0Z"/>
  <path class="cls-1" d="M39.76,67.15c0-5.15-.07-9.84.07-14.53.03-.88.74-1.9,1.42-2.57,2.21-2.17,4.54-4.21,7.07-6.52-2.21-1.99-3.93-3.54-6-5.4-1.64,2.04-3.45,4.29-5.25,6.54-.45-.02-.9-.05-1.35-.07-1.76-2.41-3.53-4.82-5.39-7.37-2.43,2.52-4.04,4.18-6.39,6.62,2.15,1.84,4.48,3.58,6.47,5.65.92.96,1.59,2.53,1.67,3.87.22,3.75-.02,7.53.11,11.29.07,2.01-.65,2.7-2.61,2.54-1.58-.13-3.18-.03-5.23-.03,0-1.68-.12-3.16.03-4.62.2-2-.48-3.21-2.25-4.33-10.15-6.45-14.44-18.37-10.89-29.78,3.46-11.12,13.92-18.55,25.72-18.27,11.07.26,21.1,8,24.28,18.75,3.14,10.63-.92,22.57-10.12,28.63-2.55,1.67-3.75,3.38-3.26,6.33.42,2.48-.46,3.7-3.18,3.33-1.46-.2-2.97-.04-4.9-.04Z"/>
  <path class="cls-1" d="M24.35,74.8h23.47c0,2.47.08,4.86-.06,7.25-.03.48-.87,1.3-1.35,1.3-6.84.09-13.69.1-20.53,0-.52,0-1.43-.92-1.46-1.47-.16-2.31-.07-4.63-.07-7.09Z"/>
</svg>