<?xml version="1.0" encoding="UTF-8"?>
<svg id="Layer_1" xmlns="http://www.w3.org/2000/svg" viewBox="0 0 150 150">
  <defs>
    <style>
      .cls-1 {
        fill: #0464f6;
      }
    </style>
  </defs>
  <path class="cls-1" d="M92.73,120.95c0-5.23-.09-10.39.1-15.54.03-.78,1.27-1.66,2.11-2.25,12.76-8.93,18.21-25.3,13.32-40.15-4.82-14.66-18.92-24.57-34.38-24.19-14.88.37-28.32,10.65-32.62,24.94-4.4,14.64.91,30.59,13.28,39.06,2.23,1.53,2.92,3.11,2.81,5.63-.17,4.08-.05,8.18-.05,12.6-1-.26-1.73-.42-2.44-.63-5.07-1.52-9.67-.77-13.76,2.73-3.12,2.66-4.77,2.55-7.71-.37-2.48-2.47-4.97-4.93-7.41-7.45-2.28-2.36-2.41-4.39-.24-6.85,3.97-4.51,4.92-9.61,2.68-15.06-2.2-5.35-6.38-8.25-12.26-8.69-3.67-.27-4.83-1.69-4.86-5.44-.03-3.6-.04-7.2,0-10.8.04-3.35,1.31-4.84,4.59-5.04,6.01-.37,10.27-3.32,12.52-8.77,2.25-5.46,1.28-10.55-2.69-15.06-2.16-2.45-2.03-4.5.25-6.85,2.58-2.66,5.2-5.27,7.86-7.85,2.46-2.38,4.27-2.48,6.83-.32,4.41,3.73,9.27,5.04,14.76,2.79,5.52-2.26,8.44-6.44,8.93-12.4.31-3.67,1.77-4.93,5.4-4.97,3.3-.03,6.6-.02,9.91,0,4.27.02,5.53,1.15,5.99,5.33.75,6.94,5,11.61,11.81,12.91,4.22.8,7.9-.52,11.18-3.12,3.6-2.85,4.86-2.81,8.17.44,2.35,2.32,4.7,4.64,7,7.01,2.45,2.51,2.62,4.52.38,7.08-3.96,4.52-4.91,9.62-2.63,15.07,2.28,5.44,6.55,8.37,12.56,8.72,3.25.19,4.5,1.71,4.54,5.09.04,3.5.02,7,0,10.5-.02,4.1-1.12,5.29-5.22,5.74-7.63.84-12.92,6.48-13.03,13.93-.05,3.55,1.14,6.64,3.44,9.35,2.64,3.11,2.54,4.82-.34,7.74-2.53,2.56-5.07,5.11-7.63,7.65-1.69,1.68-3.6,2.12-5.7.82q-8.37-5.2-17.49-3.33Z"/>
  <path class="cls-1" d="M61.54,50.9c0,8.04.12,15.22-.06,22.4-.06,2.51.58,4.07,2.9,5.21,3.66,1.8,7.16,5.4,10.75,5.43,3.46.03,6.88-3.64,10.45-5.4,2.33-1.15,3-2.69,2.93-5.19-.18-6.3-.07-12.6-.05-18.9,0-.96.1-1.92.18-3.33,7.47,4.65,11.62,10.96,12.77,19.1,1.72,12.08-3.95,22.68-14.94,28.14-1.67.83-2.03,1.83-2.02,3.48.04,11.6.02,23.2.02,34.81,0,1.07,0,2.14,0,3.37h-18.8c-.05-1.19-.14-2.26-.14-3.33-.01-11.5-.05-23,.04-34.51.02-2.07-.6-3.11-2.54-4.07-17.1-8.5-19.95-31.89-5.47-44.33,1.04-.89,2.23-1.62,3.99-2.88Z"/>
</svg>