<svg width="291" height="260" viewBox="0 0 291 260" fill="none" xmlns="http://www.w3.org/2000/svg">
<g clip-path="url(#clip0_114_121)">
<g opacity="0.3">
<path d="M204.293 51.337C213.305 42.4053 213.305 27.9242 204.293 18.9924C195.281 10.0607 180.67 10.0607 171.659 18.9924C162.647 27.9242 162.647 42.4053 171.659 51.337C180.67 60.2687 195.281 60.2687 204.293 51.337Z" fill="#F5F5F5"/>
<path d="M231.295 25.2048C231.295 23.1481 229.613 21.4805 227.537 21.4805C227.164 21.4805 226.799 21.5361 226.459 21.638C226.515 21.2643 226.543 20.8814 226.543 20.4954C226.543 16.1379 222.979 12.6082 218.582 12.6082C218.081 12.6082 217.592 12.6576 217.115 12.744C215.89 10.7583 213.694 9.43042 211.173 9.43042C207.362 9.43042 204.271 12.4661 204.215 16.2306C204.175 16.2306 204.137 16.2244 204.1 16.2244C200.56 16.2244 197.688 19.0686 197.688 22.5799C197.688 26.0912 200.557 28.9354 204.1 28.9354H227.647L227.64 28.9292C229.666 28.8736 231.292 27.2307 231.292 25.2079L231.295 25.2048Z" fill="#ECECEC"/>
<path d="M177.198 50.599C177.198 48.5423 175.515 46.8747 173.44 46.8747C173.066 46.8747 172.701 46.9303 172.362 47.0322C172.418 46.6585 172.446 46.2756 172.446 45.8895C172.446 41.5321 168.881 38.0023 164.488 38.0023C163.986 38.0023 163.497 38.0517 163.02 38.1382C161.796 36.1525 159.599 34.8246 157.078 34.8246C153.268 34.8246 150.177 37.8603 150.121 41.6248C150.08 41.6248 150.043 41.6186 150.005 41.6186C146.463 41.6186 143.593 44.4628 143.593 47.9741C143.593 51.4853 146.463 54.3295 150.005 54.3295H173.552L173.546 54.3234C175.571 54.2678 177.198 52.6249 177.198 50.6021V50.599Z" fill="#ECECEC"/>
<path d="M64.1417 34.4601C64.1417 32.4034 62.4592 30.7358 60.384 30.7358C60.0101 30.7358 59.6455 30.7913 59.3059 30.8932C59.362 30.5196 59.39 30.1366 59.39 29.7506C59.39 25.3932 55.8255 21.8634 51.4321 21.8634C50.9305 21.8634 50.4413 21.9128 49.9646 21.9993C48.74 20.0136 46.5433 18.6857 44.0226 18.6857C40.2119 18.6857 37.121 21.7213 37.0649 25.4858C37.0244 25.4858 36.987 25.4797 36.9496 25.4797C33.41 25.4797 30.5372 28.3239 30.5372 31.8351C30.5372 35.3464 33.4069 38.1906 36.9496 38.1906H60.4962L60.4899 38.1844C62.5152 38.1289 64.1417 36.4859 64.1417 34.4632V34.4601Z" fill="#ECECEC"/>
<path d="M268.795 52.9522C268.795 51.7076 267.779 50.7009 266.523 50.7009C266.296 50.7009 266.078 50.7348 265.872 50.7966C265.906 50.5712 265.922 50.3396 265.922 50.1049C265.922 47.4706 263.769 45.3367 261.111 45.3367C260.809 45.3367 260.513 45.3645 260.226 45.4201C259.488 44.2219 258.157 43.4189 256.636 43.4189C254.334 43.4189 252.464 45.2533 252.43 47.5293C252.405 47.5293 252.383 47.5262 252.362 47.5262C250.221 47.5262 248.485 49.2463 248.485 51.3679C248.485 53.4895 250.221 55.2096 252.362 55.2096H266.595C267.819 55.1726 268.804 54.1813 268.804 52.9583L268.795 52.9522Z" fill="#ECECEC"/>
<path d="M102.588 58.8475C102.588 57.603 101.573 56.5962 100.317 56.5962C100.089 56.5962 99.8713 56.6302 99.6657 56.6919C99.7 56.4665 99.7155 56.2349 99.7155 56.0002C99.7155 53.366 97.5625 51.232 94.9046 51.232C94.6024 51.232 94.3064 51.2598 94.0197 51.3154C93.2813 50.1172 91.9508 49.3143 90.4303 49.3143C88.1276 49.3143 86.2581 51.1487 86.2239 53.4246C86.1989 53.4246 86.1771 53.4216 86.1553 53.4216C84.0147 53.4216 82.2792 55.1417 82.2792 57.2632C82.2792 59.3848 84.0147 61.1049 86.1553 61.1049H100.389C101.613 61.0679 102.598 60.0766 102.598 58.8537L102.588 58.8475Z" fill="#ECECEC"/>
<path d="M221.303 93.991C221.303 91.9899 219.664 90.3655 217.645 90.3655C217.28 90.3655 216.928 90.4211 216.595 90.5199C216.648 90.1555 216.676 89.7849 216.676 89.4081C216.676 85.1681 213.208 81.7309 208.93 81.7309C208.444 81.7309 207.967 81.7772 207.503 81.8637C206.312 79.9336 204.172 78.6396 201.719 78.6396C198.012 78.6396 195.002 81.592 194.946 85.2576C194.908 85.2576 194.871 85.2514 194.833 85.2514C191.387 85.2514 188.592 88.0215 188.592 91.4371C188.592 94.8526 191.387 97.6227 194.833 97.6227H217.751L217.744 97.6165C219.717 97.5609 221.3 95.9643 221.3 93.9972L221.303 93.991Z" fill="#ECECEC"/>
<path d="M36.2704 78.5532C36.2704 77.3086 35.2546 76.3019 33.9989 76.3019C33.7715 76.3019 33.5534 76.3359 33.3477 76.3976C33.382 76.1722 33.3976 75.9406 33.3976 75.7059C33.3976 73.0717 31.2445 70.9377 28.5867 70.9377C28.2844 70.9377 27.9884 70.9655 27.7018 71.0211C26.9633 69.8229 25.6328 69.02 24.1123 69.02C21.8097 69.02 19.9402 70.8543 19.9059 73.1303C19.881 73.1303 19.8592 73.1272 19.8373 73.1272C17.6967 73.1272 15.9612 74.8474 15.9612 76.9689C15.9612 79.0905 17.6967 80.8106 19.8373 80.8106H34.0706C35.2951 80.7736 36.2797 79.7823 36.2797 78.5593L36.2704 78.5532Z" fill="#ECECEC"/>
<path d="M129.31 10.3878C129.31 9.14323 128.294 8.13649 127.038 8.13649C126.811 8.13649 126.593 8.17046 126.387 8.23222C126.422 8.00678 126.437 7.77517 126.437 7.54047C126.437 4.90625 124.284 2.77231 121.626 2.77231C121.324 2.77231 121.028 2.80011 120.741 2.85569C120.003 1.65748 118.672 0.854553 117.152 0.854553C114.849 0.854553 112.98 2.68893 112.945 4.96492C112.921 4.96492 112.899 4.96183 112.877 4.96183C110.736 4.96183 109.001 6.68195 109.001 8.80353C109.001 10.9251 110.736 12.6452 112.877 12.6452H127.11C128.335 12.6082 129.319 11.6169 129.319 10.3939L129.31 10.3878Z" fill="#ECECEC"/>
<path d="M211.5 191.238H24.6077C24.6077 191.238 30.372 182.437 35.1767 175.383C38.2209 170.924 40.8725 167.156 41.4458 166.752C42.9196 165.708 46.7085 165.081 48.3942 161.212C50.0736 157.336 50.0736 155.696 52.4853 151.314C54.8907 146.935 64.1791 135.042 65.1575 135.07C66.1421 135.098 74.4926 122.112 77.6988 121.068C80.9113 120.024 81.2229 116.896 84.6566 112.205C88.0871 107.511 99.5348 92.4871 104.374 92.1412C109.213 91.7861 121.065 114.382 125.649 116.062C130.238 117.739 135.311 110.429 136.934 112.205C138.555 113.981 141.839 120.651 145.182 126.074C148.529 131.497 151.894 133.998 152.193 136.052C152.492 138.106 159.303 141.719 162.7 141.719C163.846 141.719 166.333 144.248 169.131 147.602L169.149 147.62C174.611 154.17 181.23 163.833 181.23 163.833C182.136 165.14 183.722 163.206 186.455 164.244C189.194 165.288 211.5 191.235 211.5 191.235V191.238Z" fill="#F0F0F0"/>
<path d="M211.5 191.238H24.6077C24.6077 191.238 30.372 182.436 35.1767 175.383C37.9623 172.338 40.1995 170.059 41.047 169.577C44.0974 167.86 46.4623 163.886 48.2976 163.382C50.1422 162.879 52.317 161.211 52.317 161.211C52.317 161.211 55.1681 152.364 55.8567 150.804C56.5484 149.245 65.1201 139.517 67.0488 138.825C68.9744 138.133 70.2208 140.431 71.3674 141.685C72.5203 142.939 81.3101 158.559 81.3101 158.559L86.8875 154.887C86.8875 154.887 90.1311 150.758 91.365 148.692C92.5989 146.626 93.7954 147.086 93.7954 147.086C93.7954 147.086 99.6251 140.431 99.9305 138.64C100.236 136.849 103.794 137.676 104.05 137.676C104.305 137.676 110.088 140.431 110.088 140.431C110.088 140.431 104.019 132.862 101.454 134.903C98.8898 136.951 84.3419 150.804 84.3419 150.804L76.0474 140.431L79.9391 134.903C79.9391 134.903 85.2641 128.267 85.7284 127.35C86.1896 126.432 95.2224 113.811 95.3627 113.119C95.4966 112.434 103.093 106.464 104.05 106.918C105.003 107.366 107.035 108.762 109.312 111.757C111.596 114.756 112.59 116.566 114.968 120.423C117.345 124.28 119.305 125.284 120.09 126.253C120.863 127.211 129.544 136.463 129.812 136.753L123.228 126.253C123.228 126.253 126.487 123.221 128.593 121.155C130.706 119.089 131.351 121.846 134.111 123.909C136.878 125.975 137.364 127.35 139.449 130.527C141.533 133.699 151.401 145.017 151.401 145.017C151.401 145.017 149.868 147.54 148.205 150.097C146.547 152.648 145.425 156.792 145.425 156.792L148.329 155.115C148.329 155.115 154.505 149.146 155.58 147.614C156.661 146.082 159.596 143.183 162.157 143.408C164.628 143.633 168.828 147.336 169.128 147.596L169.146 147.614C174.608 154.164 181.226 163.827 181.226 163.827C182.133 165.133 183.719 163.2 186.452 164.238C189.191 165.282 211.497 191.229 211.497 191.229L211.5 191.238Z" fill="#E7E7E7"/>
<path d="M260.469 191.232H65.1575C65.1575 191.232 71.3301 177.597 74.4833 178.91C77.6334 180.222 87.6073 172.036 89.0437 168.737C90.4801 165.436 95.4655 169.812 102.199 168.422C108.935 167.03 118.757 145.616 121.788 146.725C124.82 147.837 133.625 167.863 135.716 168.608C137.807 169.352 139.801 162.861 142.711 162.302C145.628 161.749 147.937 166.752 148.501 168.144C149.058 169.537 151.891 173.987 151.891 173.987C151.891 173.987 156.359 172.595 157.773 171.483C159.188 170.371 166.18 156.465 167.654 154.488C169.128 152.512 172.075 150.903 176.521 151.737C180.968 152.571 182.735 144.782 187.658 140.036C192.574 135.289 195.086 136.994 196.793 136.765C198.507 136.54 207.714 121.142 209.961 122.446C212.207 123.749 222.303 142.556 224.122 144.782C225.948 147.009 230.161 143.396 230.66 144.782C231.158 146.175 238.985 157.021 238.985 157.021C238.985 157.021 242.506 156.743 244.625 158.414C244.98 158.692 245.669 159.809 246.56 161.477L246.741 161.814C251.23 170.272 260.466 191.235 260.466 191.235L260.469 191.232Z" fill="#ECECEC"/>
<path d="M260.469 191.232H166.968C164.17 187.183 159.577 180.426 159.727 179.954C159.936 179.268 168.564 162.373 172.67 160.075C176.771 157.78 179.846 159.658 179.846 159.658L176.528 168.601C176.774 168.286 184.592 158.299 186.667 156.802C188.767 155.279 188.013 154.028 187.658 153.401C187.305 152.796 182.71 154.399 182.467 154.482C182.822 154.118 191.964 144.949 193.612 144.075C195.295 143.183 198.622 143.183 198.622 143.183C198.622 143.183 204.761 135.147 206.87 132.173C208.976 129.206 214.339 133.606 215.339 137.04C216.345 140.474 219.919 144.016 219.919 144.016L222.446 151.11C222.446 151.11 214.762 145.477 213.345 145.894C211.924 146.311 208.606 146.521 208.606 146.521C208.606 146.521 207.085 142.139 205.191 141.512C203.296 140.891 199.295 143.81 196.348 147.772C192.64 152.765 201.402 142.139 205.611 147.772C209.821 153.405 210.528 151.527 212.697 150.066C214.872 148.612 222.437 160.291 224.126 161.956C225.818 163.626 229.08 157.997 229.08 157.997C229.08 157.997 225.818 160.918 226.238 158.83C226.659 156.743 226.84 149.35 229.983 149.029C233.134 148.707 236.321 157.787 236.321 157.787L232.975 162.268L242.023 158.617L246.566 161.474L246.747 161.811C251.237 170.269 260.472 191.232 260.472 191.232H260.469Z" fill="#E1E1E1"/>
<path d="M68.1363 191.232C69.3484 189.197 70.414 187.205 70.1647 186.85C69.6288 186.084 75.5427 183.65 76.8513 182.869C78.1662 182.094 79.5372 181.563 82.9335 181.757C86.3267 181.946 85.2205 182.19 86.1241 182.869C87.0277 183.554 87.1929 188.421 87.1929 188.421C87.1929 188.421 89.0063 185.111 89.0437 182.869C89.0811 180.633 86.1241 178.91 86.1241 178.91C86.1241 178.91 86.9062 177.597 87.5917 176.665C88.2772 175.726 91.5333 170.927 93.6396 170.3C95.7397 169.673 99.5286 171.344 101.214 172.381C102.336 173.077 103.387 173.703 104.368 174.259C105.841 175.096 105.421 175.93 106.053 178.91C106.686 181.89 107.736 178.641 109.565 179.954C111.394 181.26 113.332 184.209 113.332 184.209C113.332 184.209 112.79 180.519 111.469 178.91C110.154 177.298 109.565 173.008 109.565 173.008L111.469 168.605C111.469 168.605 115.734 161.329 118.283 157.991C120.838 154.652 120.782 156.113 123.773 159.034C126.758 161.95 126.465 161.533 128.188 164.951C129.911 168.364 135.454 176.662 135.454 176.662L135.283 173.425C135.283 173.425 139.091 169.466 140.773 170.714C142.459 171.965 143.721 174.679 143.721 174.679L141.817 176.662C141.817 176.662 139.514 181.143 138.536 181.754C137.564 182.359 140.988 180.933 143.724 179.951C146.46 178.965 148.566 175.51 150.252 176.662C151.476 177.499 158.795 186.433 162.69 191.232H68.1363Z" fill="#E1E1E1"/>
<path d="M3.26407 208.133C3.26407 208.133 12.9014 180.13 46.3564 182.551C79.8114 184.972 80.6932 191.513 103.825 185.769C126.961 180.025 147.519 181.618 157.241 186.426C166.962 191.235 190.898 188.74 196.924 183.832C202.95 178.925 214.398 177.931 222.543 182.551C230.688 187.171 248.298 189.101 259.185 185.111C270.072 181.124 290.017 208.133 290.017 208.133H3.26407Z" fill="#E1E1E1"/>
</g>
<path d="M138.664 239.515C213.737 239.515 274.596 235.992 274.596 231.647C274.596 227.301 213.737 223.778 138.664 223.778C63.5903 223.778 2.73123 227.301 2.73123 231.647C2.73123 235.992 63.5903 239.515 138.664 239.515Z" fill="#F5F5F5"/>
<path d="M254.814 214.137C247.015 193.931 232.532 188.733 227.104 187.467C226.422 187.307 225.93 188.079 226.357 188.628C227.008 189.465 227.587 190.37 228.101 191.327L229.684 191.738L228.401 191.917C229.127 193.369 229.719 194.919 230.192 196.503H232.27L230.301 196.88C230.881 198.897 231.283 200.953 231.557 202.917H233.937L231.666 203.72C232.379 209.443 232.049 214.14 232.049 214.14H254.811L254.814 214.137Z" fill="#04B1DB"/>
<path d="M216.361 213.482C216.361 213.482 222.991 213.482 226.232 212.021C229.472 210.561 230.295 211.583 233.641 212.021C236.988 212.46 240.524 210.944 243.176 211.265C245.828 211.586 249.068 213.263 251.869 212.352C254.667 211.438 256.584 209.906 258.942 212.352C261.301 214.798 267.193 215.236 269.845 213.482C272.496 211.731 277.211 213.189 279.127 214.14C281.043 215.088 285.019 214.547 285.019 214.547C285.019 214.547 282.071 218.158 279.273 216.842C276.475 215.526 271.611 219.47 266.162 219.47C260.712 219.47 256.88 217.864 253.343 218.741C249.807 219.618 243.179 221.808 238.022 220.202C232.866 218.596 229.625 217.574 224.982 218.596C220.34 219.618 214.915 220.066 213.245 218.46C211.575 216.854 205.34 216.842 201.57 217.574C197.8 218.303 195.737 216.552 195.737 216.552C195.737 216.552 202.561 214.177 205.533 215.02C210.949 216.552 213.706 213.587 216.361 213.488V213.482Z" fill="#007CFF"/>
<path d="M285.016 214.544C285.016 214.544 282.065 218.154 279.267 216.842C276.469 215.523 271.608 219.467 266.155 219.467C260.703 219.467 256.876 217.861 253.34 218.735C249.803 219.615 243.173 221.802 238.016 220.196C232.859 218.59 229.616 217.565 224.979 218.59C220.337 219.615 214.912 220.063 213.239 218.457C211.569 216.851 205.334 216.842 201.57 217.565C197.8 218.297 195.737 216.546 195.737 216.546C195.737 216.546 202.558 214.171 205.53 215.011C206.814 215.375 207.948 215.486 208.967 215.437C210.179 215.387 211.229 215.116 212.173 214.788C213.781 214.236 215.083 213.519 216.364 213.476C216.364 213.476 222.995 213.476 226.235 212.015C229.476 210.558 230.295 211.577 233.641 212.015C236.988 212.454 240.524 210.941 243.176 211.256C245.831 211.577 249.068 213.26 251.869 212.346C254.667 211.432 256.584 209.9 258.942 212.346C259.858 213.297 261.31 213.945 262.909 214.279H262.915C264.401 214.588 266.003 214.622 267.402 214.371C268.346 214.205 269.19 213.905 269.841 213.476C272.496 211.725 277.211 213.183 279.127 214.134C281.043 215.082 285.019 214.538 285.019 214.538L285.016 214.544Z" fill="#CFE3FF"/>
<path d="M227.709 215.196C227.709 215.196 226.637 216.11 224.982 216.314C223.325 216.524 221.222 215.338 218.607 215.338C215.993 215.338 214.036 217.092 208.624 215.897C208.624 215.897 208.752 215.702 208.964 215.437C210.176 215.388 211.226 215.116 212.17 214.788C213.613 215.242 216.171 215.088 217.906 214.572C220.112 213.914 221.48 214.538 222.549 215.193C224.979 216.688 227.706 215.193 227.706 215.193L227.709 215.196Z" fill="white"/>
<path d="M232.274 216.839C234.779 216.255 237.356 216.4 240.378 217.277C243.397 218.154 245.828 217.012 247.376 216.342C248.922 215.672 251.134 217.389 252.901 216.969C254.667 216.549 255.259 215.9 255.259 215.9C255.259 215.9 253.343 216.493 252.09 215.9C250.838 215.307 248.261 214.208 245.902 215.196C243.544 216.181 241.263 215.171 239.898 214.801C238.536 214.43 237.309 216.258 236.178 215.9C233.673 215.106 232.274 216.839 232.274 216.839Z" fill="white"/>
<path d="M273.303 214.776C273.303 214.776 271.537 214.649 270.945 215.196C270.359 215.743 268.296 216.493 266.969 215.9C265.644 215.307 263.585 216.354 261.958 216.342C260.684 216.329 259.372 215.628 258.864 215.329C259.279 215.557 260.238 215.909 261.301 215.196C261.765 214.881 262.307 214.554 262.909 214.282H262.915C264.401 214.591 266.003 214.625 267.402 214.375C267.844 214.591 268.564 214.856 269.256 214.745C270.362 214.572 271.172 213.877 273.306 214.773L273.303 214.776Z" fill="white"/>
<path d="M49.2012 191.893C44.6676 192.952 32.5656 197.297 26.0472 214.177H45.0664C45.0664 214.177 44.948 212.457 45.0384 209.912L42.7545 209.483L44.141 208.933L44.7642 207.834H43.8637L44.7642 207.42V206.802H42.7545L45.325 206.012C45.8173 201.654 47.0107 196.466 49.8243 192.862C50.1827 192.402 49.7714 191.76 49.2012 191.893Z" fill="#04B1DB"/>
<path d="M18.0457 216.184C18.0457 216.184 23.5857 216.184 26.2934 217.197C29.001 218.21 29.6865 217.5 32.4846 217.197C35.2795 216.894 38.2365 217.944 40.4518 217.722C42.6672 217.5 45.3749 216.332 47.7149 216.969C50.0549 217.602 51.6533 218.667 53.6226 216.969C55.5918 215.27 60.5149 214.967 62.7333 216.184C64.9487 217.401 68.8872 216.388 70.4887 215.727C72.0903 215.069 75.4118 215.446 75.4118 215.446C75.4118 215.446 72.9502 212.942 70.6102 213.853C68.2702 214.764 64.2103 212.028 59.6549 212.028C55.0995 212.028 51.8995 213.142 48.9457 212.534C45.9918 211.926 40.4518 210.406 36.1426 211.521C31.8334 212.636 29.1257 213.346 25.2464 212.636C21.3672 211.926 16.8336 211.614 15.4377 212.729C14.0418 213.843 8.83209 213.853 5.68195 213.343C2.53182 212.834 0.808746 214.053 0.808746 214.053C0.808746 214.053 6.51077 215.702 8.99411 215.119C13.5183 214.053 15.8241 216.113 18.0426 216.184H18.0457Z" fill="#007CFF"/>
<path d="M75.4118 215.446C75.4118 215.446 72.9472 212.939 70.6103 213.85C68.2734 214.764 64.2103 212.028 59.6549 212.028C55.0995 212.028 51.9026 213.142 48.9488 212.534C45.995 211.923 40.455 210.403 36.1457 211.518C31.8365 212.633 29.1257 213.343 25.2527 212.633C21.3734 211.923 16.843 211.611 15.4408 212.725C14.0449 213.84 8.83522 213.846 5.69132 213.343C2.54119 212.837 0.818115 214.05 0.818115 214.05C0.818115 214.05 6.51702 215.699 9.00036 215.116C10.0753 214.862 11.0226 214.785 11.8701 214.819C12.8827 214.853 13.7614 215.042 14.5497 215.27C15.8926 215.653 16.9801 216.15 18.0519 216.181C18.0519 216.181 23.5919 216.181 26.2996 217.197C29.0073 218.207 29.6928 217.5 32.4877 217.197C35.2826 216.894 38.2396 217.941 40.455 217.725C42.6735 217.503 45.378 216.332 47.718 216.969C50.0549 217.602 51.6565 218.667 53.6288 216.969C54.3953 216.308 55.6074 215.857 56.9441 215.628H56.9503C58.1904 215.412 59.5303 215.391 60.6987 215.563C61.487 215.678 62.1912 215.888 62.7396 216.187C64.9581 217.401 68.8965 216.391 70.4981 215.73C72.0996 215.072 75.4212 215.449 75.4212 215.449L75.4118 215.446Z" fill="#CFE3FF"/>
<path d="M27.5273 214.992C27.5273 214.992 26.6299 214.359 25.2496 214.217C23.863 214.072 22.1088 214.893 19.9246 214.893C17.7403 214.893 16.1076 213.674 11.5834 214.504C11.5834 214.504 11.6893 214.64 11.8669 214.822C12.8796 214.856 13.7583 215.045 14.5466 215.273C15.7524 214.958 17.8899 215.066 19.3388 215.425C21.1834 215.882 22.3269 215.446 23.218 214.995C25.2496 213.958 27.5273 214.995 27.5273 214.995V214.992Z" fill="white"/>
<path d="M31.3411 213.853C33.4349 214.257 35.588 214.155 38.1118 213.55C40.6357 212.942 42.6672 213.735 43.9603 214.198C45.2534 214.665 47.098 213.47 48.578 213.763C50.0549 214.056 50.5472 214.504 50.5472 214.504C50.5472 214.504 48.9457 214.09 47.9019 214.504C46.8549 214.918 44.7019 215.678 42.7326 214.992C40.7634 214.307 38.8534 215.011 37.7161 215.267C36.5788 215.523 35.5537 214.254 34.6065 214.504C32.5126 215.057 31.3442 213.853 31.3442 213.853H31.3411Z" fill="white"/>
<path d="M65.6249 215.286C65.6249 215.286 64.1511 215.375 63.6556 214.992C63.1664 214.612 61.4434 214.094 60.331 214.504C59.2249 214.915 57.5018 214.189 56.1433 214.195C55.0777 214.202 53.9809 214.693 53.5571 214.9C53.903 214.742 54.7069 214.495 55.5918 214.992C55.9782 215.211 56.4331 215.437 56.9347 215.625H56.941C58.1811 215.409 59.5209 215.387 60.6893 215.56C61.057 215.409 61.6615 215.227 62.2379 215.304C63.1633 215.424 63.8395 215.906 65.6217 215.286H65.6249Z" fill="white"/>
<path d="M253.094 150.919L110.867 200.465L206.141 208.983L253.094 150.919Z" fill="#0B9970"/>
<path d="M253.094 150.919L110.867 200.465L206.141 208.983L253.094 150.919Z" fill="#0464F6"/>
<path d="M78.2381 225.393L144.21 159.213L213.535 225.393H78.2381Z" fill="#1A2E35"/>
<path d="M213.532 225.396H78.2348L126.739 176.745L144.21 159.217L175.366 188.965L213.532 225.396Z" fill="#0464F6"/>
<path d="M144.21 159.213L155.988 213.843L213.535 225.393L144.21 159.213Z" fill="#105AC6"/>
<path opacity="0.2" d="M213.532 225.396H78.2348L126.739 176.745L175.366 188.965L213.532 225.396Z" fill="black"/>
<path d="M201.576 202.411L208.724 202.522C208.964 202.528 209.17 202.698 209.219 202.93L210.297 208.143C210.388 208.609 210.082 209.06 209.612 209.152C209.55 209.165 209.484 209.171 209.422 209.168C207.11 209.094 205.427 208.927 202.523 208.881C200.735 208.853 195.335 208.955 192.864 208.915C190.393 208.874 190.11 206.453 191.126 206.246C195.678 205.338 199.112 204.035 200.585 202.766C200.86 202.525 201.215 202.399 201.579 202.411H201.576Z" fill="#1A2E35"/>
<path d="M176.263 74.4088C176.263 74.4088 183.644 86.9932 185.137 91.3074C189.384 103.589 192.335 136.487 193.061 142.432C194.444 153.738 210.319 202.766 210.319 202.766H200.582C200.582 202.766 179.753 161.52 176.534 150.996C173.315 140.471 167.542 114.11 167.542 114.11C167.542 114.11 142.085 143.772 138.006 149.606C133.928 155.443 145.182 202.763 145.182 202.763H135.451C135.451 202.763 119.339 161.659 121.302 146.808C123.265 131.957 150.049 98.6758 150.632 96.9278C151.373 94.7074 149.329 86.8171 149.329 86.8171L176.266 74.4026L176.263 74.4088Z" fill="#333333"/>
<path d="M136.445 202.411L143.593 202.522C143.833 202.528 144.039 202.698 144.089 202.93L145.167 208.143C145.257 208.609 144.952 209.06 144.481 209.152C144.419 209.165 144.353 209.171 144.291 209.168C141.979 209.094 140.297 208.927 137.393 208.881C135.604 208.853 130.204 208.955 127.733 208.915C125.263 208.874 124.979 206.453 125.995 206.246C130.547 205.338 133.981 204.035 135.454 202.766C135.729 202.525 136.084 202.399 136.448 202.411H136.445Z" fill="#1A2E35"/>
<path opacity="0.2" d="M159.88 123.085C161.752 116.918 162.718 111.316 162.718 111.316C155.075 105.445 155.944 98.5986 155.944 98.5986C159.3 102.508 166.89 104.074 166.89 104.074L167.542 114.114C167.542 114.114 164.27 117.928 159.883 123.085H159.88Z" fill="black"/>
<path d="M177.207 77.6947L175.761 74.6404L150.115 87.2958L151.872 89.9455L177.207 77.6947Z" fill="#1A2E35"/>
<path opacity="0.2" d="M177.207 77.6947L175.761 74.6404L150.115 87.2958L151.872 89.9455L177.207 77.6947Z" fill="white"/>
<path d="M157.512 83.7351L158.82 86.4713C158.926 86.6905 158.845 86.953 158.643 87.0395L154.614 88.809C154.436 88.8862 154.224 88.8059 154.122 88.6176L152.666 85.9617C152.545 85.7394 152.623 85.4614 152.832 85.3688L157.007 83.519C157.194 83.4356 157.415 83.5313 157.512 83.7351Z" fill="white"/>
<path d="M162.715 81.0793L164.329 84.7944L165.653 84.4176L163.884 80.5018L162.715 81.0793Z" fill="#1A2E35"/>
<path d="M172.976 76.0147L174.873 79.5692L175.814 79.3005L173.798 75.6101L172.976 76.0147Z" fill="#1A2E35"/>
<path d="M151.074 86.8234L152.885 90.347L152.265 90.9183L150.115 87.2959L151.074 86.8234Z" fill="#1A2E35"/>
<path d="M149.04 87.7129C145.958 83.2288 133.024 65.4286 123.661 57.7143C123.661 57.7143 127.858 49.7622 136.146 44.1417C145.042 38.1105 152.096 37.5083 152.096 37.5083C152.096 37.5083 166.741 49.7869 177.207 74.409L149.04 87.7129Z" fill="#007CFF"/>
<path d="M177.204 74.4057L149.04 87.7158C148.304 86.6473 146.999 84.8129 145.319 82.5307C142.051 78.1023 137.33 71.9908 132.532 66.5803C129.491 63.1462 126.422 59.9901 123.664 57.7141C123.664 57.7141 127.858 49.759 136.149 44.1416C145.045 38.1134 152.103 37.5051 152.103 37.5051C152.103 37.5051 153.851 38.9658 156.561 41.8872C157.97 43.422 159.659 45.3521 161.491 47.6806C166.336 53.8107 172.237 62.7139 177.207 74.4057H177.204Z" fill="#ECECEC"/>
<path opacity="0.2" d="M166.56 65.3172L163.659 73.5935C163.659 73.5935 154.062 80.9897 145.316 82.5338C142.048 78.1054 137.327 71.9938 132.529 66.5834C132.501 63.8133 132.719 61.809 132.719 61.809C132.719 61.809 141.586 68.952 149.56 68.8285C157.53 68.708 166.56 65.3172 166.56 65.3172Z" fill="black"/>
<path opacity="0.2" d="M161.487 47.6806C157.465 46.2199 154.667 43.3386 154.667 43.3386L156.555 41.8871C157.963 43.422 159.652 45.3521 161.484 47.6806H161.487Z" fill="black"/>
<path d="M133.083 50.4044L135.105 49.7157L137.405 50.7997L137.907 48.3106L140.593 46.9642C141.247 45.1113 141.499 43.1225 141.275 41.1244C137.137 41.5907 131.628 35.9332 128.858 32.5578L128.914 37.4711L128.977 43.2645C130.351 43.9254 131.666 44.7129 132.507 45.7752C133.445 46.9395 133.819 48.428 133.083 50.4075V50.4044Z" fill="#FFC3BD"/>
<path opacity="0.2" d="M128.977 43.2615C130.351 43.9223 131.666 44.7098 132.507 45.7722C134.7 43.4344 133.579 39.216 132.429 38.0424C132.002 37.5669 129.999 37.6255 128.911 37.4711L128.973 43.2646L128.977 43.2615Z" fill="black"/>
<path d="M115.572 24.7601C115.572 24.7601 111.743 25.177 111.4 29.1206C111.057 33.0643 112.836 37.4186 117.202 37.3908C121.567 37.363 122.686 25.0195 122.686 25.0195L115.572 24.7632V24.7601Z" fill="#1A2E35"/>
<path d="M133.118 39.7441V39.7533C132.987 40.3339 132.797 40.9145 132.522 41.5136C130.142 46.8685 123.278 47.27 119.629 43.2924C119.373 43.0206 119.137 42.7211 118.922 42.403C115.89 37.9838 113.566 29.6828 118.08 25.5261C121.283 22.5305 126.334 22.6819 129.347 25.8627C130.207 26.7613 130.84 27.8577 131.198 29.0466C132.663 33.6881 133.806 36.6559 133.114 39.7472L133.118 39.7441Z" fill="#FFC3BD"/>
<path d="M130.874 20.2206C127.297 18.5128 115.862 21.9067 115.572 24.7602C115.572 24.7602 113.229 25.1987 113.746 27.4068C114.161 29.1763 115.666 30.3992 115.666 30.3992C115.971 30.0564 116.292 29.7538 116.619 29.4666C117.722 31.4708 119.966 33.265 124.518 32.8389C124.518 32.8389 121.788 32.3448 120.558 29.3585C122.097 30.0749 124.184 30.7142 126.683 30.671C128.78 33.4874 131.644 33.9877 131.644 33.9877C133.495 38.6693 134.841 39.9417 134.841 39.9417C141.477 32.8821 134.202 21.8048 130.877 20.2175L130.874 20.2206Z" fill="#1A2E35"/>
<path d="M135.937 34.0772C135.645 35.5039 134.794 36.7577 133.569 37.5638C131.94 38.6199 130.544 37.3136 130.5 35.4854C130.478 33.861 131.276 31.3071 133.155 31.0045C135.034 30.7018 136.274 32.3231 135.937 34.0803V34.0772Z" fill="#FFC3BD"/>
<path d="M134.492 50.7997L137.555 54.3449C137.555 54.3449 136.857 69.3874 129.759 78.6736V82.2929L134.242 80.5018C134.242 80.5018 139.723 62.4081 138.975 53.7674L139.972 48.0327L137.221 50.4044L134.492 50.7997Z" fill="#0464F6"/>
<path d="M138.72 40.8527C139.384 41.8563 140.153 44.1632 137.579 48.1686L137.221 50.4044L135.704 49.1135C133.501 49.0209 133.055 45.4973 132.441 45.9667L130.644 51.2629C130.644 51.2629 132.731 54.4407 134.778 56.4603L136.227 50.7009L137.558 51.2135L138.193 49.3637L142.911 50.3303C142.911 50.3303 145.846 43.9625 143.658 39.6112L139.041 40.1516C138.701 40.1918 138.53 40.5685 138.717 40.8527H138.72Z" fill="#0464F6"/>
<path d="M150.115 37.9405C150.115 37.9405 166.869 29.1979 172.976 30.4332C179.08 31.6684 186.056 41.6186 186.056 41.6186L180.451 43.0268C180.451 43.0268 172.729 35.751 170.735 35.7479C168.741 35.7448 156.973 44.1385 156.973 44.1385C156.973 44.1385 153.143 43.0577 152.099 41.8069C151.056 40.5593 150.111 37.9405 150.111 37.9405H150.115Z" fill="#007CFF"/>
<path d="M150.115 37.9405C150.115 37.9405 166.869 29.1979 172.976 30.4332C179.08 31.6684 186.056 41.6186 186.056 41.6186L180.451 43.0268C180.451 43.0268 172.729 35.751 170.735 35.7479C168.741 35.7448 156.973 44.1385 156.973 44.1385C156.973 44.1385 153.143 43.0577 152.099 41.8069C151.056 40.5593 150.111 37.9405 150.111 37.9405H150.115Z" fill="#ECECEC"/>
<path d="M152.766 71.648L165.812 68.5629C165.812 68.5629 166.909 64.7799 167.283 64.6965C167.657 64.6131 173.135 63.0258 173.135 63.0258L174.555 70.28C174.555 70.28 170.28 73.4948 169.38 73.294C168.483 73.0933 167.697 72.2348 167.697 72.2348L154.739 76.5922L152.766 71.648Z" fill="#FFC3BD"/>
<path d="M123.661 57.7142C121.041 64.1345 135.738 77.5341 142.961 78.6736C150.183 79.8132 162.715 74.6405 162.715 74.6405L160.896 68.8717C160.896 68.8717 145.578 73.5164 142.337 72.1576C139.1 70.7988 130.644 58.758 130.644 58.758L123.661 57.7111V57.7142Z" fill="#007CFF"/>
<path d="M123.661 57.7142C121.041 64.1345 135.738 77.5341 142.961 78.6736C150.183 79.8132 162.715 74.6405 162.715 74.6405L160.896 68.8717C160.896 68.8717 145.578 73.5164 142.337 72.1576C139.1 70.7988 130.644 58.758 130.644 58.758L123.661 57.7111V57.7142Z" fill="#ECECEC"/>
<path d="M185.526 41.7545L186.586 43.0608C186.586 43.0608 189.2 45.3398 190.041 45.7722C190.883 46.2076 190.041 50.2809 190.041 50.2809L183.968 48.7986C183.968 48.7986 182.909 47.2792 183.766 45.7722C184.623 44.2621 185.558 42.7828 185.558 42.7828L184.479 42.017L185.526 41.7545Z" fill="#FFC3BD"/>
<path d="M27.8825 150.919L189.882 195.317L253.094 150.919L213.535 225.393H78.2379L27.8825 150.919Z" fill="#04B1DB"/>
<path d="M27.8825 150.919L189.882 195.317L253.094 150.919L213.535 225.393H78.2379L27.8825 150.919Z" fill="#0464F6"/>
<path opacity="0.1" d="M78.2379 225.393L189.882 195.317L213.535 225.393H78.2379Z" fill="#13BE91"/>
<path d="M48.3413 227.203C63.1479 227.203 71.2554 222.151 81.5252 219.402C91.792 216.654 96.0202 223.574 104.202 223.549C112.382 223.525 122.767 219.677 130.108 220.227C137.446 220.776 141.484 222.929 148.117 223.228C154.751 223.525 164.395 218.473 170.464 219.763C176.534 221.051 179.815 222.657 184.888 223.228C189.96 223.8 199.806 219.062 203.387 220.606C206.967 222.151 205.474 224.578 215.024 223.228C224.571 221.876 236.804 220.455 243.668 223.228C250.53 226.002 268.732 225.393 268.732 225.393C268.732 225.393 269.331 230.671 241.88 229.571C214.429 228.472 203.77 236.168 190.303 235.618C176.836 235.068 150.676 230.835 140.484 232.045C130.292 233.256 106.421 237.412 99.5599 235.646C92.6987 233.883 77.9576 229.856 67.5911 230.946C57.2246 232.036 34.3137 233.694 30.6837 229.022C30.6837 229.022 33.6064 227.2 48.3507 227.2L48.3413 227.203Z" fill="#007CFF"/>
<path d="M241.87 229.571C214.423 228.472 203.76 236.174 190.3 235.624C176.833 235.068 150.669 230.838 140.474 232.045C130.279 233.256 106.415 237.415 99.5535 235.652C92.6893 233.886 77.945 229.856 67.5848 230.949C57.2152 232.039 34.3043 233.7 30.6805 229.025C30.6805 229.025 33.463 227.295 47.2818 227.212C47.6339 227.206 47.9829 227.206 48.3474 227.206C52.0771 227.206 55.3799 226.888 58.4023 226.36C67.376 224.809 73.8476 221.462 81.5314 219.405C91.795 216.66 96.0232 223.58 104.205 223.553C112.388 223.531 122.77 219.683 130.111 220.233C137.452 220.783 141.49 222.935 148.12 223.235C154.754 223.534 164.401 218.482 170.464 219.766C176.534 221.06 179.815 222.663 184.894 223.235C189.963 223.806 199.813 219.072 203.39 220.616C206.088 221.777 205.907 223.438 209.721 223.617C210.808 223.667 212.229 223.596 214.139 223.352C214.426 223.318 214.722 223.275 215.03 223.235C224.577 221.879 236.813 220.461 243.678 223.235C244.441 223.546 245.354 223.812 246.363 224.041C250.003 224.874 254.938 225.236 259.257 225.375C264.451 225.541 268.742 225.402 268.742 225.402C268.742 225.402 269.337 230.677 241.883 229.578L241.87 229.571Z" fill="#CFE3FF"/>
<path d="M127.194 231.872C124.418 231.344 107.038 234.957 104.262 234.241C101.492 233.524 98.7153 230.927 94.6491 230.927C90.5829 230.927 83.7405 230.189 79.4842 227.947C75.2342 225.708 70.0556 225.612 55.0808 227.947C45.2035 229.491 44.8951 228.676 47.2787 227.209C47.6308 227.203 47.9798 227.203 48.3443 227.203C52.074 227.203 55.3768 226.885 58.3992 226.357C60.0942 226.341 62.1974 226.079 64.7805 225.396C74.4708 222.839 78.752 224.695 80.9674 227.419C83.189 230.143 88.3644 228.914 93.3561 227.947C98.3477 226.987 100.753 230.192 103.71 232.762C106.667 235.325 112.774 231.656 118.987 230.927C125.206 230.189 127.197 231.872 127.197 231.872H127.194Z" fill="white"/>
<path d="M92.4338 225.375C98.9054 224.328 104.081 228.361 108.705 228.728C113.329 229.096 121.464 224.204 124.237 225.551C127.01 226.897 136.772 229.229 140.49 227.972C144.207 226.715 155.486 227.422 155.486 227.422C155.486 227.422 149.887 224.183 145.291 225.399C143.44 225.89 141.724 228.707 136.863 226.977C132.002 225.248 130.709 223.667 124.976 224.183C119.243 224.698 114.622 226.165 110.923 225.433C107.225 224.701 105.256 225.989 103.713 226.418C102.171 226.848 97.4254 224.386 95.7615 224.084C94.0977 223.781 92.4338 225.378 92.4338 225.378V225.375Z" fill="white"/>
<path d="M214.13 223.346C212.341 223.902 210.478 224.575 208.739 225.375C202.632 228.176 199.492 228.126 195.235 227.419C190.985 226.712 187.019 228.503 182.716 229.26C178.41 230.01 173.237 226.292 163.619 227.419C160.45 227.796 171.567 223.778 175.643 225.433C179.709 227.079 180.818 229.408 186.361 227.419C191.914 225.433 194.129 222.861 199.121 225.433C202.212 227.018 206.047 225.316 209.715 223.611C210.802 223.661 212.223 223.59 214.133 223.346H214.13Z" fill="white"/>
<path d="M259.375 225.424C259.375 225.424 254.328 227.654 251.595 227.419C248.859 227.19 245.803 224.633 241.786 227.419C239.325 229.121 232.47 228.203 229.385 227.274C226.3 226.341 218.819 229.686 216.087 228.747C213.36 227.808 209.104 229.365 209.104 229.365C209.104 229.365 212.014 226.224 214.747 226.758C220.848 227.947 221.645 225.236 222.839 224.979C226.428 224.186 228.616 225.124 231.111 226.357C234.436 227.996 236.854 227.295 240.624 225.396C241.948 224.729 244.101 224.306 246.351 224.034C249.99 224.868 254.926 225.229 259.244 225.368L259.378 225.424H259.375Z" fill="white"/>
<path d="M194.715 218.389L191.415 217.991C191.415 217.991 192.525 217.867 193.497 217.037C194.469 216.203 192.665 215.807 192.562 215.628C192.459 215.449 195.609 214.199 195.609 214.199H191.418L196.662 213.569C197.407 212.071 198.267 210.653 199.264 209.372C199.803 208.683 199.183 207.713 198.326 207.914C191.518 209.504 173.34 216.03 163.55 241.387H192.116C192.116 241.387 191.259 229.111 194.715 218.392V218.389Z" fill="#04B1DB"/>
<path d="M151.529 244.395C151.529 244.395 159.848 244.395 163.918 245.917C167.987 247.44 169.015 246.374 173.216 245.917C177.416 245.46 181.853 247.041 185.18 246.708C188.508 246.374 192.577 244.623 196.089 245.574C199.601 246.526 202.006 248.125 204.963 245.574C207.92 243.024 215.317 242.567 218.645 244.395C221.973 246.223 227.89 244.701 230.295 243.709C232.697 242.721 237.692 243.286 237.692 243.286C237.692 243.286 233.993 239.522 230.482 240.893C226.97 242.264 220.866 238.15 214.027 238.15C207.188 238.15 202.377 239.824 197.94 238.913C193.503 237.999 185.18 235.717 178.709 237.391C172.237 239.065 168.171 240.133 162.344 239.065C156.521 237.999 149.709 237.53 147.613 239.207C145.516 240.88 137.692 240.893 132.962 240.133C128.232 239.37 125.643 241.199 125.643 241.199C125.643 241.199 134.205 243.675 137.938 242.798C144.733 241.199 148.195 244.293 151.529 244.398V244.395Z" fill="#007CFF"/>
<path d="M237.692 243.286C237.692 243.286 233.99 239.522 230.479 240.89C226.967 242.264 220.866 238.154 214.024 238.154C207.182 238.154 202.38 239.827 197.94 238.916C193.503 237.999 185.18 235.717 178.709 237.391C172.237 239.065 168.165 240.133 162.344 239.065C156.518 237.996 149.709 237.53 147.606 239.204C145.509 240.877 137.685 240.89 132.962 240.133C128.229 239.37 125.643 241.195 125.643 241.195C125.643 241.195 134.202 243.672 137.932 242.795C139.546 242.415 140.966 242.298 142.244 242.35C143.764 242.403 145.082 242.684 146.27 243.027C148.289 243.604 149.921 244.348 151.529 244.395C151.529 244.395 159.852 244.395 163.918 245.92C167.984 247.44 169.015 246.377 173.216 245.92C177.416 245.463 181.853 247.041 185.184 246.711C188.514 246.377 192.581 244.62 196.092 245.574C199.604 246.526 202.009 248.125 204.969 245.574C206.119 244.58 207.942 243.907 209.945 243.561H209.952C211.815 243.237 213.828 243.203 215.582 243.462C216.766 243.635 217.825 243.947 218.645 244.398C221.976 246.223 227.893 244.704 230.298 243.712C232.704 242.724 237.695 243.292 237.695 243.292L237.692 243.286Z" fill="#CFE3FF"/>
<path d="M165.769 242.607C165.769 242.607 164.423 241.652 162.347 241.439C160.266 241.22 157.63 242.455 154.349 242.455C151.068 242.455 148.613 240.624 141.82 241.872C141.82 241.872 141.982 242.072 142.247 242.35C143.767 242.403 145.085 242.684 146.273 243.027C148.083 242.554 151.292 242.715 153.473 243.252C156.243 243.938 157.96 243.286 159.3 242.607C162.35 241.047 165.772 242.607 165.772 242.607H165.769Z" fill="white"/>
<path d="M171.499 240.893C174.643 241.501 177.877 241.35 181.669 240.436C185.458 239.522 188.511 240.711 190.452 241.412C192.394 242.113 195.167 240.318 197.385 240.757C199.604 241.195 200.342 241.872 200.342 241.872C200.342 241.872 197.94 241.251 196.366 241.872C194.796 242.492 191.559 243.635 188.602 242.607C185.645 241.578 182.778 242.635 181.067 243.021C179.357 243.407 177.818 241.498 176.4 241.872C173.256 242.699 171.499 240.893 171.499 240.893Z" fill="white"/>
<path d="M222.991 243.045C222.991 243.045 220.776 243.178 220.031 242.607C219.296 242.035 216.71 241.257 215.04 241.875C213.379 242.492 210.793 241.402 208.752 241.412C207.153 241.424 205.505 242.156 204.866 242.468C205.384 242.23 206.59 241.862 207.923 242.607C208.506 242.937 209.185 243.277 209.942 243.558H209.948C211.812 243.234 213.825 243.2 215.579 243.459C216.133 243.234 217.037 242.956 217.906 243.073C219.296 243.252 220.312 243.981 222.988 243.045H222.991Z" fill="white"/>
<path d="M82.1389 250.991C72.3489 225.634 54.1741 219.109 47.3628 217.518C46.506 217.318 45.889 218.287 46.4249 218.976C49.8804 223.407 51.7126 229.429 52.666 235.056L55.5638 235.816H52.7906C52.962 236.912 53.1053 237.99 53.2175 239.034H55.5638L53.2985 239.84C53.4824 241.748 53.5821 243.524 53.6288 245.074L55.5638 245.494H53.6413C53.7223 248.811 53.5696 250.991 53.5696 250.991H82.1358H82.1389Z" fill="#04B1DB"/>
<path d="M33.8805 250.167C33.8805 250.167 42.1998 250.167 46.2692 248.335C50.3385 246.504 51.3667 247.786 55.5669 248.335C59.7671 248.885 64.204 246.983 67.5318 247.384C70.8595 247.786 74.9288 249.895 78.4404 248.749C81.952 247.603 84.3574 245.679 87.3144 248.749C90.2713 251.819 97.6684 252.368 100.996 250.17C104.324 247.971 110.241 249.802 112.646 250.994C115.052 252.186 120.043 251.504 120.043 251.504C120.043 251.504 116.345 256.034 112.833 254.385C109.322 252.736 103.218 257.683 96.3784 257.683C89.5391 257.683 84.7282 255.667 80.2912 256.766C75.8542 257.865 67.5318 260.614 61.0601 258.597C54.5885 256.581 50.5223 255.299 44.6956 256.581C38.8721 257.862 32.0608 258.427 29.9639 256.411C27.8669 254.394 20.043 254.382 15.3131 255.299C10.5832 256.216 7.99393 254.018 7.99393 254.018C7.99393 254.018 16.5563 251.037 20.2891 252.094C27.0848 254.018 30.5465 250.296 33.8805 250.17V250.167Z" fill="#007CFF"/>
<path d="M120.043 251.501C120.043 251.501 116.342 256.031 112.83 254.385C109.319 252.73 103.218 257.68 96.3753 257.68C89.5329 257.68 84.7313 255.663 80.2912 256.763C75.8543 257.868 67.5318 260.614 61.0601 258.597C54.5885 256.584 50.5161 255.296 44.6956 256.584C38.869 257.868 32.0608 258.431 29.9576 256.417C27.8607 254.4 20.0367 254.388 15.3131 255.299C10.5801 256.216 7.99393 254.021 7.99393 254.021C7.99393 254.021 16.5532 251.04 20.2829 252.097C21.8969 252.557 23.3177 252.693 24.5952 252.631C26.1158 252.569 27.4338 252.226 28.6209 251.819C30.64 251.124 32.2727 250.228 33.8805 250.173C33.8805 250.173 42.203 250.173 46.2692 248.338C50.3354 246.51 51.3667 247.789 55.5669 248.338C59.7671 248.888 64.204 246.989 67.5349 247.387C70.8658 247.789 74.932 249.904 78.4435 248.755C81.9551 247.61 84.3606 245.682 87.3206 248.755C88.4704 249.95 90.2932 250.763 92.2966 251.179H92.3029C94.1662 251.569 96.179 251.612 97.9333 251.297C99.1173 251.087 100.177 250.713 100.996 250.17C104.327 247.974 110.244 249.802 112.649 250.997C115.055 252.186 120.047 251.504 120.047 251.504L120.043 251.501Z" fill="#CFE3FF"/>
<path d="M48.12 252.322C48.12 252.322 46.7739 253.468 44.6988 253.727C42.6174 253.993 39.9814 252.504 36.7004 252.504C33.4194 252.504 30.9641 254.706 24.1715 253.205C24.1715 253.205 24.3335 252.961 24.5983 252.628C26.1189 252.566 27.4369 252.223 28.624 251.816C30.4344 252.384 33.6437 252.192 35.8248 251.544C38.5948 250.716 40.3116 251.501 41.6515 252.322C44.7019 254.2 48.1231 252.322 48.1231 252.322H48.12Z" fill="white"/>
<path d="M53.85 254.382C56.9939 253.65 60.2282 253.832 64.0202 254.932C67.8091 256.031 70.8626 254.598 72.8038 253.758C74.745 252.915 77.5181 255.074 79.7366 254.546C81.9551 254.018 82.6936 253.205 82.6936 253.205C82.6936 253.205 80.2912 253.953 78.7177 253.205C77.1473 252.458 73.9099 251.084 70.953 252.322C67.996 253.56 65.1294 252.291 63.4188 251.825C61.7082 251.362 60.169 253.656 58.7513 253.205C55.6074 252.208 53.85 254.385 53.85 254.385V254.382Z" fill="white"/>
<path d="M105.343 251.794C105.343 251.794 103.127 251.633 102.383 252.322C101.647 253.011 99.0581 253.946 97.3911 253.205C95.7303 252.461 93.1442 253.774 91.1033 253.761C89.5048 253.746 87.8566 252.866 87.2178 252.489C87.735 252.773 88.944 253.218 90.2745 252.322C90.8571 251.927 91.5364 251.516 92.2935 251.176H92.2998C94.1631 251.566 96.1759 251.609 97.9301 251.294C98.4848 251.565 99.3884 251.899 100.258 251.76C101.647 251.544 102.663 250.67 105.34 251.794H105.343Z" fill="white"/>
</g>
<defs>
<clipPath id="clip0_114_121">
<rect width="289.208" height="258.465" fill="white" transform="translate(0.81189 0.851501)"/>
</clipPath>
</defs>
</svg>
